%TF.GenerationSoftware,KiCad,Pcbnew,7.0.8*%
%TF.CreationDate,2023-11-16T13:38:25-05:00*%
%TF.ProjectId,tarbiukuan,74617262-6975-46b7-9561-6e2e6b696361,rev?*%
%TF.SameCoordinates,Original*%
%TF.FileFunction,Soldermask,Bot*%
%TF.FilePolarity,Negative*%
%FSLAX46Y46*%
G04 Gerber Fmt 4.6, Leading zero omitted, Abs format (unit mm)*
G04 Created by KiCad (PCBNEW 7.0.8) date 2023-11-16 13:38:25*
%MOMM*%
%LPD*%
G01*
G04 APERTURE LIST*
G04 Aperture macros list*
%AMRoundRect*
0 Rectangle with rounded corners*
0 $1 Rounding radius*
0 $2 $3 $4 $5 $6 $7 $8 $9 X,Y pos of 4 corners*
0 Add a 4 corners polygon primitive as box body*
4,1,4,$2,$3,$4,$5,$6,$7,$8,$9,$2,$3,0*
0 Add four circle primitives for the rounded corners*
1,1,$1+$1,$2,$3*
1,1,$1+$1,$4,$5*
1,1,$1+$1,$6,$7*
1,1,$1+$1,$8,$9*
0 Add four rect primitives between the rounded corners*
20,1,$1+$1,$2,$3,$4,$5,0*
20,1,$1+$1,$4,$5,$6,$7,0*
20,1,$1+$1,$6,$7,$8,$9,0*
20,1,$1+$1,$8,$9,$2,$3,0*%
%AMFreePoly0*
4,1,35,0.312797,1.099367,0.509479,1.023172,0.688811,0.912134,0.844687,0.770034,0.971798,0.601712,1.065816,0.412899,1.123538,0.210026,1.143000,0.000000,1.123538,-0.210026,1.065816,-0.412899,0.971798,-0.601712,0.844687,-0.770034,0.688811,-0.912134,0.509479,-1.023172,0.312797,-1.099367,0.105463,-1.138124,-0.105463,-1.138124,-0.312797,-1.099367,-0.509479,-1.023172,-0.688811,-0.912134,
-0.844687,-0.770034,-0.971798,-0.601712,-1.065816,-0.412899,-1.123538,-0.210026,-1.143000,0.000000,-1.123538,0.210026,-1.065816,0.412899,-0.971798,0.601712,-0.844687,0.770034,-0.688811,0.912134,-0.509479,1.023172,-0.312797,1.099367,-0.105463,1.138124,0.105463,1.138124,0.312797,1.099367,0.312797,1.099367,$1*%
G04 Aperture macros list end*
%ADD10C,3.000000*%
%ADD11RoundRect,0.102000X1.000000X1.000000X-1.000000X1.000000X-1.000000X-1.000000X1.000000X-1.000000X0*%
%ADD12C,2.204000*%
%ADD13FreePoly0,180.000000*%
%ADD14C,1.600000*%
%ADD15O,1.600000X1.600000*%
%ADD16R,1.700000X1.700000*%
%ADD17O,1.700000X1.700000*%
%ADD18R,3.500000X3.500000*%
%ADD19RoundRect,0.750000X1.000000X-0.750000X1.000000X0.750000X-1.000000X0.750000X-1.000000X-0.750000X0*%
%ADD20RoundRect,0.875000X0.875000X-0.875000X0.875000X0.875000X-0.875000X0.875000X-0.875000X-0.875000X0*%
%ADD21C,1.400000*%
%ADD22O,1.400000X1.400000*%
%ADD23FreePoly0,90.000000*%
%ADD24FreePoly0,0.000000*%
G04 APERTURE END LIST*
D10*
%TO.C,U1*%
X151980000Y-145120000D03*
X151980000Y-98170000D03*
X127470000Y-145120000D03*
X127470000Y-98170000D03*
D11*
X152400000Y-137160000D03*
D12*
X152400000Y-134620000D03*
X152400000Y-132080000D03*
X152400000Y-129540000D03*
X152400000Y-127000000D03*
X152400000Y-124460000D03*
X152400000Y-121920000D03*
X152400000Y-119380000D03*
X152400000Y-116840000D03*
X152400000Y-114300000D03*
X152400000Y-111760000D03*
X152400000Y-109220000D03*
X152400000Y-106680000D03*
X152400000Y-104140000D03*
X152400000Y-101600000D03*
X127000000Y-101600000D03*
X127000000Y-104140000D03*
X127000000Y-106680000D03*
X127000000Y-109220000D03*
X127000000Y-111760000D03*
X127000000Y-114300000D03*
X127000000Y-116840000D03*
X127000000Y-119380000D03*
X127000000Y-121920000D03*
X127000000Y-124460000D03*
X127000000Y-127000000D03*
X127000000Y-129540000D03*
X127000000Y-132080000D03*
X127000000Y-134620000D03*
X127000000Y-137160000D03*
%TD*%
D13*
%TO.C,MLX1*%
X166370000Y-74930000D03*
X163830000Y-74930000D03*
X161290000Y-74930000D03*
X158750000Y-74930000D03*
%TD*%
D14*
%TO.C,R1*%
X166370000Y-92710000D03*
D15*
X173990000Y-92710000D03*
%TD*%
D16*
%TO.C,J1*%
X107950000Y-109220000D03*
D17*
X107950000Y-111760000D03*
X107950000Y-114300000D03*
X107950000Y-116840000D03*
X107950000Y-119380000D03*
X107950000Y-121920000D03*
%TD*%
D18*
%TO.C,J3*%
X109600000Y-129080000D03*
D19*
X109600000Y-135080000D03*
D20*
X114300000Y-132080000D03*
%TD*%
D21*
%TO.C,R2*%
X168910000Y-84533750D03*
D22*
X163830000Y-84533750D03*
%TD*%
D23*
%TO.C,Son1*%
X106680000Y-78740000D03*
X106680000Y-76200000D03*
X106680000Y-73660000D03*
%TD*%
D13*
%TO.C,Oled1*%
X148590000Y-73660000D03*
X146050000Y-73660000D03*
X143510000Y-73660000D03*
X140970000Y-73660000D03*
%TD*%
D24*
%TO.C,MAX1*%
X116840000Y-73660000D03*
X119380000Y-73660000D03*
X121920000Y-73660000D03*
X124460000Y-73660000D03*
%TD*%
M02*
