%TF.GenerationSoftware,KiCad,Pcbnew,7.0.8*%
%TF.CreationDate,2023-11-16T13:38:25-05:00*%
%TF.ProjectId,tarbiukuan,74617262-6975-46b7-9561-6e2e6b696361,rev?*%
%TF.SameCoordinates,Original*%
%TF.FileFunction,Legend,Top*%
%TF.FilePolarity,Positive*%
%FSLAX46Y46*%
G04 Gerber Fmt 4.6, Leading zero omitted, Abs format (unit mm)*
G04 Created by KiCad (PCBNEW 7.0.8) date 2023-11-16 13:38:25*
%MOMM*%
%LPD*%
G01*
G04 APERTURE LIST*
%ADD10C,0.150000*%
%ADD11C,0.100000*%
%ADD12C,0.127000*%
%ADD13C,0.200000*%
%ADD14C,0.120000*%
G04 APERTURE END LIST*
D10*
X150293095Y-148459819D02*
X150293095Y-149269342D01*
X150293095Y-149269342D02*
X150340714Y-149364580D01*
X150340714Y-149364580D02*
X150388333Y-149412200D01*
X150388333Y-149412200D02*
X150483571Y-149459819D01*
X150483571Y-149459819D02*
X150674047Y-149459819D01*
X150674047Y-149459819D02*
X150769285Y-149412200D01*
X150769285Y-149412200D02*
X150816904Y-149364580D01*
X150816904Y-149364580D02*
X150864523Y-149269342D01*
X150864523Y-149269342D02*
X150864523Y-148459819D01*
X151864523Y-149459819D02*
X151293095Y-149459819D01*
X151578809Y-149459819D02*
X151578809Y-148459819D01*
X151578809Y-148459819D02*
X151483571Y-148602676D01*
X151483571Y-148602676D02*
X151388333Y-148697914D01*
X151388333Y-148697914D02*
X151293095Y-148745533D01*
X170013333Y-90794819D02*
X169680000Y-90318628D01*
X169441905Y-90794819D02*
X169441905Y-89794819D01*
X169441905Y-89794819D02*
X169822857Y-89794819D01*
X169822857Y-89794819D02*
X169918095Y-89842438D01*
X169918095Y-89842438D02*
X169965714Y-89890057D01*
X169965714Y-89890057D02*
X170013333Y-89985295D01*
X170013333Y-89985295D02*
X170013333Y-90128152D01*
X170013333Y-90128152D02*
X169965714Y-90223390D01*
X169965714Y-90223390D02*
X169918095Y-90271009D01*
X169918095Y-90271009D02*
X169822857Y-90318628D01*
X169822857Y-90318628D02*
X169441905Y-90318628D01*
X170965714Y-90794819D02*
X170394286Y-90794819D01*
X170680000Y-90794819D02*
X170680000Y-89794819D01*
X170680000Y-89794819D02*
X170584762Y-89937676D01*
X170584762Y-89937676D02*
X170489524Y-90032914D01*
X170489524Y-90032914D02*
X170394286Y-90080533D01*
X107616666Y-106344819D02*
X107616666Y-107059104D01*
X107616666Y-107059104D02*
X107569047Y-107201961D01*
X107569047Y-107201961D02*
X107473809Y-107297200D01*
X107473809Y-107297200D02*
X107330952Y-107344819D01*
X107330952Y-107344819D02*
X107235714Y-107344819D01*
X108616666Y-107344819D02*
X108045238Y-107344819D01*
X108330952Y-107344819D02*
X108330952Y-106344819D01*
X108330952Y-106344819D02*
X108235714Y-106487676D01*
X108235714Y-106487676D02*
X108140476Y-106582914D01*
X108140476Y-106582914D02*
X108045238Y-106630533D01*
X114804819Y-137863333D02*
X115519104Y-137863333D01*
X115519104Y-137863333D02*
X115661961Y-137910952D01*
X115661961Y-137910952D02*
X115757200Y-138006190D01*
X115757200Y-138006190D02*
X115804819Y-138149047D01*
X115804819Y-138149047D02*
X115804819Y-138244285D01*
X114804819Y-137482380D02*
X114804819Y-136863333D01*
X114804819Y-136863333D02*
X115185771Y-137196666D01*
X115185771Y-137196666D02*
X115185771Y-137053809D01*
X115185771Y-137053809D02*
X115233390Y-136958571D01*
X115233390Y-136958571D02*
X115281009Y-136910952D01*
X115281009Y-136910952D02*
X115376247Y-136863333D01*
X115376247Y-136863333D02*
X115614342Y-136863333D01*
X115614342Y-136863333D02*
X115709580Y-136910952D01*
X115709580Y-136910952D02*
X115757200Y-136958571D01*
X115757200Y-136958571D02*
X115804819Y-137053809D01*
X115804819Y-137053809D02*
X115804819Y-137339523D01*
X115804819Y-137339523D02*
X115757200Y-137434761D01*
X115757200Y-137434761D02*
X115709580Y-137482380D01*
X166203333Y-86908569D02*
X165870000Y-86432378D01*
X165631905Y-86908569D02*
X165631905Y-85908569D01*
X165631905Y-85908569D02*
X166012857Y-85908569D01*
X166012857Y-85908569D02*
X166108095Y-85956188D01*
X166108095Y-85956188D02*
X166155714Y-86003807D01*
X166155714Y-86003807D02*
X166203333Y-86099045D01*
X166203333Y-86099045D02*
X166203333Y-86241902D01*
X166203333Y-86241902D02*
X166155714Y-86337140D01*
X166155714Y-86337140D02*
X166108095Y-86384759D01*
X166108095Y-86384759D02*
X166012857Y-86432378D01*
X166012857Y-86432378D02*
X165631905Y-86432378D01*
X166584286Y-86003807D02*
X166631905Y-85956188D01*
X166631905Y-85956188D02*
X166727143Y-85908569D01*
X166727143Y-85908569D02*
X166965238Y-85908569D01*
X166965238Y-85908569D02*
X167060476Y-85956188D01*
X167060476Y-85956188D02*
X167108095Y-86003807D01*
X167108095Y-86003807D02*
X167155714Y-86099045D01*
X167155714Y-86099045D02*
X167155714Y-86194283D01*
X167155714Y-86194283D02*
X167108095Y-86337140D01*
X167108095Y-86337140D02*
X166536667Y-86908569D01*
X166536667Y-86908569D02*
X167155714Y-86908569D01*
D11*
X101509800Y-77866666D02*
X101557419Y-77723809D01*
X101557419Y-77723809D02*
X101557419Y-77485714D01*
X101557419Y-77485714D02*
X101509800Y-77390476D01*
X101509800Y-77390476D02*
X101462180Y-77342857D01*
X101462180Y-77342857D02*
X101366942Y-77295238D01*
X101366942Y-77295238D02*
X101271704Y-77295238D01*
X101271704Y-77295238D02*
X101176466Y-77342857D01*
X101176466Y-77342857D02*
X101128847Y-77390476D01*
X101128847Y-77390476D02*
X101081228Y-77485714D01*
X101081228Y-77485714D02*
X101033609Y-77676190D01*
X101033609Y-77676190D02*
X100985990Y-77771428D01*
X100985990Y-77771428D02*
X100938371Y-77819047D01*
X100938371Y-77819047D02*
X100843133Y-77866666D01*
X100843133Y-77866666D02*
X100747895Y-77866666D01*
X100747895Y-77866666D02*
X100652657Y-77819047D01*
X100652657Y-77819047D02*
X100605038Y-77771428D01*
X100605038Y-77771428D02*
X100557419Y-77676190D01*
X100557419Y-77676190D02*
X100557419Y-77438095D01*
X100557419Y-77438095D02*
X100605038Y-77295238D01*
X101557419Y-76723809D02*
X101509800Y-76819047D01*
X101509800Y-76819047D02*
X101462180Y-76866666D01*
X101462180Y-76866666D02*
X101366942Y-76914285D01*
X101366942Y-76914285D02*
X101081228Y-76914285D01*
X101081228Y-76914285D02*
X100985990Y-76866666D01*
X100985990Y-76866666D02*
X100938371Y-76819047D01*
X100938371Y-76819047D02*
X100890752Y-76723809D01*
X100890752Y-76723809D02*
X100890752Y-76580952D01*
X100890752Y-76580952D02*
X100938371Y-76485714D01*
X100938371Y-76485714D02*
X100985990Y-76438095D01*
X100985990Y-76438095D02*
X101081228Y-76390476D01*
X101081228Y-76390476D02*
X101366942Y-76390476D01*
X101366942Y-76390476D02*
X101462180Y-76438095D01*
X101462180Y-76438095D02*
X101509800Y-76485714D01*
X101509800Y-76485714D02*
X101557419Y-76580952D01*
X101557419Y-76580952D02*
X101557419Y-76723809D01*
X100890752Y-75961904D02*
X101557419Y-75961904D01*
X100985990Y-75961904D02*
X100938371Y-75914285D01*
X100938371Y-75914285D02*
X100890752Y-75819047D01*
X100890752Y-75819047D02*
X100890752Y-75676190D01*
X100890752Y-75676190D02*
X100938371Y-75580952D01*
X100938371Y-75580952D02*
X101033609Y-75533333D01*
X101033609Y-75533333D02*
X101557419Y-75533333D01*
X101557419Y-74533333D02*
X101557419Y-75104761D01*
X101557419Y-74819047D02*
X100557419Y-74819047D01*
X100557419Y-74819047D02*
X100700276Y-74914285D01*
X100700276Y-74914285D02*
X100795514Y-75009523D01*
X100795514Y-75009523D02*
X100843133Y-75104761D01*
X145224285Y-79282580D02*
X145033809Y-79282580D01*
X145033809Y-79282580D02*
X144938571Y-79234961D01*
X144938571Y-79234961D02*
X144843333Y-79139723D01*
X144843333Y-79139723D02*
X144795714Y-78949247D01*
X144795714Y-78949247D02*
X144795714Y-78615914D01*
X144795714Y-78615914D02*
X144843333Y-78425438D01*
X144843333Y-78425438D02*
X144938571Y-78330200D01*
X144938571Y-78330200D02*
X145033809Y-78282580D01*
X145033809Y-78282580D02*
X145224285Y-78282580D01*
X145224285Y-78282580D02*
X145319523Y-78330200D01*
X145319523Y-78330200D02*
X145414761Y-78425438D01*
X145414761Y-78425438D02*
X145462380Y-78615914D01*
X145462380Y-78615914D02*
X145462380Y-78949247D01*
X145462380Y-78949247D02*
X145414761Y-79139723D01*
X145414761Y-79139723D02*
X145319523Y-79234961D01*
X145319523Y-79234961D02*
X145224285Y-79282580D01*
X144224285Y-78282580D02*
X144319523Y-78330200D01*
X144319523Y-78330200D02*
X144367142Y-78425438D01*
X144367142Y-78425438D02*
X144367142Y-79282580D01*
X143462380Y-78330200D02*
X143557618Y-78282580D01*
X143557618Y-78282580D02*
X143748094Y-78282580D01*
X143748094Y-78282580D02*
X143843332Y-78330200D01*
X143843332Y-78330200D02*
X143890951Y-78425438D01*
X143890951Y-78425438D02*
X143890951Y-78806390D01*
X143890951Y-78806390D02*
X143843332Y-78901628D01*
X143843332Y-78901628D02*
X143748094Y-78949247D01*
X143748094Y-78949247D02*
X143557618Y-78949247D01*
X143557618Y-78949247D02*
X143462380Y-78901628D01*
X143462380Y-78901628D02*
X143414761Y-78806390D01*
X143414761Y-78806390D02*
X143414761Y-78711152D01*
X143414761Y-78711152D02*
X143890951Y-78615914D01*
X142557618Y-78282580D02*
X142557618Y-79282580D01*
X142557618Y-78330200D02*
X142652856Y-78282580D01*
X142652856Y-78282580D02*
X142843332Y-78282580D01*
X142843332Y-78282580D02*
X142938570Y-78330200D01*
X142938570Y-78330200D02*
X142986189Y-78377819D01*
X142986189Y-78377819D02*
X143033808Y-78473057D01*
X143033808Y-78473057D02*
X143033808Y-78758771D01*
X143033808Y-78758771D02*
X142986189Y-78854009D01*
X142986189Y-78854009D02*
X142938570Y-78901628D01*
X142938570Y-78901628D02*
X142843332Y-78949247D01*
X142843332Y-78949247D02*
X142652856Y-78949247D01*
X142652856Y-78949247D02*
X142557618Y-78901628D01*
X141557618Y-78282580D02*
X142129046Y-78282580D01*
X141843332Y-78282580D02*
X141843332Y-79282580D01*
X141843332Y-79282580D02*
X141938570Y-79139723D01*
X141938570Y-79139723D02*
X142033808Y-79044485D01*
X142033808Y-79044485D02*
X142129046Y-78996866D01*
X120205714Y-68577419D02*
X120205714Y-67577419D01*
X120205714Y-67577419D02*
X120539047Y-68291704D01*
X120539047Y-68291704D02*
X120872380Y-67577419D01*
X120872380Y-67577419D02*
X120872380Y-68577419D01*
X121300952Y-68291704D02*
X121777142Y-68291704D01*
X121205714Y-68577419D02*
X121539047Y-67577419D01*
X121539047Y-67577419D02*
X121872380Y-68577419D01*
X122110476Y-67577419D02*
X122777142Y-68577419D01*
X122777142Y-67577419D02*
X122110476Y-68577419D01*
X123681904Y-68577419D02*
X123110476Y-68577419D01*
X123396190Y-68577419D02*
X123396190Y-67577419D01*
X123396190Y-67577419D02*
X123300952Y-67720276D01*
X123300952Y-67720276D02*
X123205714Y-67815514D01*
X123205714Y-67815514D02*
X123110476Y-67863133D01*
D12*
%TO.C,U1*%
X153980000Y-147120000D02*
X142911000Y-147120000D01*
X153980000Y-147120000D02*
X125470000Y-147120000D01*
X153980000Y-96170000D02*
X153980000Y-147120000D01*
X153980000Y-96170000D02*
X153980000Y-147120000D01*
X153980000Y-96170000D02*
X148610000Y-96170000D01*
X148610000Y-96170000D02*
X130920000Y-96170000D01*
X142911000Y-147120000D02*
X136200000Y-147120000D01*
X136200000Y-147120000D02*
X125470000Y-147120000D01*
X130920000Y-96170000D02*
X125470000Y-96170000D01*
X125470000Y-147120000D02*
X125470000Y-96170000D01*
X125470000Y-147120000D02*
X125470000Y-96170000D01*
X125470000Y-96170000D02*
X153980000Y-96170000D01*
D13*
X154650000Y-137160000D02*
G75*
G03*
X154650000Y-137160000I-100000J0D01*
G01*
D14*
%TO.C,R1*%
X166910000Y-91340000D02*
X173450000Y-91340000D01*
X166910000Y-91670000D02*
X166910000Y-91340000D01*
X166910000Y-93750000D02*
X166910000Y-94080000D01*
X166910000Y-94080000D02*
X173450000Y-94080000D01*
X173450000Y-91340000D02*
X173450000Y-91670000D01*
X173450000Y-94080000D02*
X173450000Y-93750000D01*
%TO.C,J1*%
X106620000Y-107890000D02*
X107950000Y-107890000D01*
X106620000Y-109220000D02*
X106620000Y-107890000D01*
X106620000Y-110490000D02*
X106620000Y-123250000D01*
X106620000Y-110490000D02*
X109280000Y-110490000D01*
X106620000Y-123250000D02*
X109280000Y-123250000D01*
X109280000Y-110490000D02*
X109280000Y-123250000D01*
%TO.C,J3*%
X105000000Y-142880000D02*
X105000000Y-128180000D01*
X114200000Y-142880000D02*
X105000000Y-142880000D01*
X114200000Y-134080000D02*
X114200000Y-142880000D01*
X104800000Y-129030000D02*
X104800000Y-127980000D01*
X105000000Y-128180000D02*
X107600000Y-128180000D01*
X111500000Y-128180000D02*
X114200000Y-128180000D01*
X114200000Y-128180000D02*
X114200000Y-130080000D01*
X105850000Y-127980000D02*
X104800000Y-127980000D01*
%TO.C,R2*%
X168290000Y-85453750D02*
X164450000Y-85453750D01*
X168290000Y-83613750D02*
X164450000Y-83613750D01*
%TD*%
M02*
