M48
; DRILL file {KiCad 7.0.8} date Thu Nov 16 13:37:22 2023
; FORMAT={-:-/ absolute / inch / decimal}
; #@! TF.CreationDate,2023-11-16T13:37:22-05:00
; #@! TF.GenerationSoftware,Kicad,Pcbnew,7.0.8
; #@! TF.FileFunction,Plated,1,2,PTH
FMAT,2
INCH
; #@! TA.AperFunction,Plated,PTH,ViaDrill
T1C0.0157
; #@! TA.AperFunction,Plated,PTH,ComponentDrill
T2C0.0276
; #@! TA.AperFunction,Plated,PTH,ComponentDrill
T3C0.0315
; #@! TA.AperFunction,Plated,PTH,ComponentDrill
T4C0.0394
; #@! TA.AperFunction,Plated,PTH,ComponentDrill
T5C0.0402
; #@! TA.AperFunction,Plated,PTH,ComponentDrill
T6C0.0512
%
G90
G05
T1
X4.75Y-3.45
X5.1Y-3.2
X6.05Y-3.1
X6.2Y-3.55
T2
X6.45Y-3.3281
X6.65Y-3.3281
T3
X6.55Y-3.65
X6.85Y-3.65
T4
X4.25Y-4.3
X4.25Y-4.4
X4.25Y-4.5
X4.25Y-4.6
X4.25Y-4.7
X4.25Y-4.8
T5
X5.0Y-4.0
X5.0Y-4.1
X5.0Y-4.2
X5.0Y-4.3
X5.0Y-4.4
X5.0Y-4.5
X5.0Y-4.6
X5.0Y-4.7
X5.0Y-4.8
X5.0Y-4.9
X5.0Y-5.0
X5.0Y-5.1
X5.0Y-5.2
X5.0Y-5.3
X5.0Y-5.4
X6.0Y-4.0
X6.0Y-4.1
X6.0Y-4.2
X6.0Y-4.3
X6.0Y-4.4
X6.0Y-4.5
X6.0Y-4.6
X6.0Y-4.7
X6.0Y-4.8
X6.0Y-4.9
X6.0Y-5.0
X6.0Y-5.1
X6.0Y-5.2
X6.0Y-5.3
X6.0Y-5.4
T6
X4.2Y-2.9
X4.2Y-3.0
X4.2Y-3.1
X4.6Y-2.9
X4.7Y-2.9
X4.8Y-2.9
X4.9Y-2.9
X5.55Y-2.9
X5.65Y-2.9
X5.75Y-2.9
X5.85Y-2.9
X6.25Y-2.95
X6.35Y-2.95
X6.45Y-2.95
X6.55Y-2.95
T4
G00X4.2756Y-5.0819
M15
G01X4.3543Y-5.0819
M16
G05
G00X4.2756Y-5.3181
M15
G01X4.3543Y-5.3181
M16
G05
G00X4.5Y-5.2394
M15
G01X4.5Y-5.1606
M16
G05
T0
M30
